<svg width="1024" height="1024" viewBox="0 0 1024 1024" fill="none" xmlns="http://www.w3.org/2000/svg">
  <defs>
    <radialGradient id="bg" cx="0" cy="0" r="1" gradientUnits="userSpaceOnUse" gradientTransform="translate(512 512) rotate(90) scale(540)">
      <stop stop-color="#0F766E"/>
      <stop offset="0.62" stop-color="#0B3B43"/>
      <stop offset="1" stop-color="#07131F"/>
    </radialGradient>
    <linearGradient id="shieldOuter" x1="512" y1="170" x2="512" y2="846" gradientUnits="userSpaceOnUse">
      <stop stop-color="#F8FFFC"/>
      <stop offset="1" stop-color="#C9F7EF"/>
    </linearGradient>
    <linearGradient id="shieldInner" x1="512" y1="270" x2="512" y2="742" gradientUnits="userSpaceOnUse">
      <stop stop-color="#0F766E"/>
      <stop offset="1" stop-color="#061D25"/>
    </linearGradient>
    <filter id="softDepth" x="214" y="128" width="596" height="770" filterUnits="userSpaceOnUse" color-interpolation-filters="sRGB">
      <feDropShadow dx="0" dy="28" stdDeviation="30" flood-color="#031216" flood-opacity="0.28"/>
    </filter>
  </defs>
  <rect x="64" y="64" width="896" height="896" rx="192" fill="url(#bg)"/>
  <circle cx="512" cy="512" r="360" fill="#FFFFFF" opacity="0.055"/>
  <circle cx="512" cy="512" r="286" stroke="#DDFBF4" stroke-width="18" opacity="0.12"/>
  <g filter="url(#softDepth)">
    <path d="M512 164L752 260V452C752 618 655 766 512 842C369 766 272 618 272 452V260L512 164Z" fill="url(#shieldOuter)"/>
  </g>
  <path d="M512 254L668 316V456C668 578 606 684 512 742C418 684 356 578 356 456V316L512 254Z" fill="url(#shieldInner)"/>
  <path d="M400 344C400 330.745 410.745 320 424 320H470C483.255 320 494 330.745 494 344V460H530V344C530 330.745 540.745 320 554 320H600C613.255 320 624 330.745 624 344V680C624 693.255 613.255 704 600 704H554C540.745 704 530 693.255 530 680V562H494V680C494 693.255 483.255 704 470 704H424C410.745 704 400 693.255 400 680V344Z" fill="#F8FFFC"/>
  <rect x="470" y="460" width="84" height="102" rx="20" fill="#F8FFFC"/>
  <path d="M512 200L716 282" stroke="#FFFFFF" stroke-width="14" stroke-linecap="round" opacity="0.18"/>
  <path d="M512 200L308 282" stroke="#FFFFFF" stroke-width="14" stroke-linecap="round" opacity="0.18"/>
</svg>
